{
  "accessors": [
    {
      "bufferView": 3,
      "componentType": 5126,
      "count": 65532,
      "max": [
        1.2564305067062378,
        1.212652325630188,
        1.0420724153518677
      ],
      "min": [
        -0.8176266551017761,
        -0.4749943017959595,
        -1.7284644842147827
      ],
      "type": "VEC3"
    },
    {
      "bufferView": 3,
      "byteOffset": 786384,
      "componentType": 5126,
      "count": 65532,
      "max": [
        0.9998832941055298,
        1.0,
        0.9997968673706055
      ],
      "min": [
        -0.9999558925628662,
        -1.0,
        -0.9999960660934448
      ],
      "type": "VEC3"
    },
    {
      "bufferView": 2,
      "componentType": 5126,
      "count": 65532,
      "max": [
        1.0000001192092896,
        1.0000001192092896
      ],
      "min": [
        0.0,
        0.0
      ],
      "type": "VEC2"
    },
    {
      "bufferView": 1,
      "componentType": 5125,
      "count": 336453,
      "type": "SCALAR"
    },
    {
      "bufferView": 3,
      "byteOffset": 1572768,
      "componentType": 5126,
      "count": 28790,
      "max": [
        0.68373042345047,
        1.212652325630188,
        1.0581494569778442
      ],
      "min": [
        -1.2564305067062378,
        -0.47499436140060425,
        -1.6099662780761719
      ],
      "type": "VEC3"
    },
    {
      "bufferView": 3,
      "byteOffset": 1918248,
      "componentType": 5126,
      "count": 28790,
      "max": [
        0.9998984336853027,
        1.0,
        0.9999963045120239
      ],
      "min": [
        -0.9998228549957275,
        -1.0,
        -0.9998798370361328
      ],
      "type": "VEC3"
    },
    {
      "bufferView": 2,
      "byteOffset": 524256,
      "componentType": 5126,
      "count": 28790,
      "max": [
        0.9961876273155212,
        0.9968181848526001
      ],
      "min": [
        0.0004764866316691041,
        0.0
      ],
      "type": "VEC2"
    },
    {
      "bufferView": 1,
      "byteOffset": 1345812,
      "componentType": 5125,
      "count": 143739,
      "type": "SCALAR"
    },
    {
      "bufferView": 3,
      "byteOffset": 2263728,
      "componentType": 5126,
      "count": 11448,
      "max": [
        0.9713419675827026,
        0.9958234429359436,
        1.2627471685409546
      ],
      "min": [
        -0.9712831377983093,
        0.18803243339061737,
        -0.9368021488189697
      ],
      "type": "VEC3"
    },
    {
      "bufferView": 3,
      "byteOffset": 2401104,
      "componentType": 5126,
      "count": 11448,
      "max": [
        0.999549388885498,
        0.9995135068893433,
        0.9813030362129211
      ],
      "min": [
        -0.999549388885498,
        -0.9999687671661377,
        -0.9974898099899292
      ],
      "type": "VEC3"
    },
    {
      "bufferView": 2,
      "byteOffset": 754576,
      "componentType": 5126,
      "count": 11448,
      "max": [
        0.928858757019043,
        0.9555678963661194
      ],
      "min": [
        0.07114126533269882,
        0.011992814019322395
      ],
      "type": "VEC2"
    },
    {
      "bufferView": 1,
      "byteOffset": 1920768,
      "componentType": 5125,
      "count": 57600,
      "type": "SCALAR"
    },
    {
      "bufferView": 5,
      "componentType": 5126,
      "count": 36,
      "max": [
        1.0,
        0.8614342212677002,
        0.7547808885574341,
        0.0,
        0.4966128468513489,
        1.0,
        1.0,
        0.0,
        0.9273267984390259,
        0.037207748740911484,
        1.0,
        0.0,
        1.4220951795578003,
        1.0522537231445313,
        0.00028856098651885986,
        1.0
      ],
      "min": [
        0.347636878490448,
        -0.8538011312484741,
        -0.7457095980644226,
        0.0,
        -0.49243468046188354,
        -0.8878476023674011,
        0.0,
        0.0,
        -0.9374218583106995,
        -1.0,
        -0.5527485013008118,
        0.0,
        -1.4486558437347412,
        -1.7086706161499023,
        -1.0293744802474976,
        1.0
      ],
      "type": "MAT4"
    },
    {
      "bufferView": 0,
      "componentType": 5123,
      "count": 65532,
      "type": "VEC4"
    },
    {
      "bufferView": 4,
      "componentType": 5126,
      "count": 65532,
      "max": [
        1.0,
        0.499904066324234,
        0.3203866481781006,
        0.2434471696615219
      ],
      "min": [
        0.256425142288208,
        0.0,
        0.0,
        0.0
      ],
      "type": "VEC4"
    },
    {
      "bufferView": 0,
      "byteOffset": 524256,
      "componentType": 5123,
      "count": 28790,
      "type": "VEC4"
    },
    {
      "bufferView": 4,
      "byteOffset": 1048512,
      "componentType": 5126,
      "count": 28790,
      "max": [
        1.0,
        0.49990537762641907,
        0.3203866481781006,
        0.1985936164855957
      ],
      "min": [
        0.30836713314056396,
        0.0,
        0.0,
        0.0
      ],
      "type": "VEC4"
    }
  ],
  "asset": {
    "extras": {
      "author": "Coalexhamm (https://sketchfab.com/chamlow21)",
      "license": "CC-BY-4.0 (http://creativecommons.org/licenses/by/4.0/)",
      "source": "https://sketchfab.com/3d-models/lady-bug-rigged-1893b247c3e844cd835cbc1934595171",
      "title": "Lady Bug (Rigged)"
    },
    "generator": "Sketchfab-12.67.0",
    "version": "2.0"
  },
  "bufferViews": [
    {
      "buffer": 0,
      "byteLength": 754576,
      "byteStride": 8,
      "name": "shortBufferViews",
      "target": 34962
    },
    {
      "buffer": 0,
      "byteLength": 2151168,
      "byteOffset": 754576,
      "name": "floatBufferViews",
      "target": 34963
    },
    {
      "buffer": 0,
      "byteLength": 846160,
      "byteOffset": 2905744,
      "byteStride": 8,
      "name": "floatBufferViews",
      "target": 34962
    },
    {
      "buffer": 0,
      "byteLength": 2538480,
      "byteOffset": 3751904,
      "byteStride": 12,
      "name": "floatBufferViews",
      "target": 34962
    },
    {
      "buffer": 0,
      "byteLength": 1509152,
      "byteOffset": 6290384,
      "byteStride": 16,
      "name": "floatBufferViews",
      "target": 34962
    },
    {
      "buffer": 0,
      "byteLength": 2304,
      "byteOffset": 7799536,
      "name": "floatBufferViews"
    }
  ],
  "buffers": [
    {
      "byteLength": 7801840,
      "uri": "scene.bin"
    }
  ],
  "extensionsUsed": [
    "KHR_materials_clearcoat"
  ],
  "images": [
    {
      "uri": "textures/Material.003_baseColor.png"
    },
    {
      "uri": "textures/Material.002_baseColor.png"
    }
  ],
  "materials": [
    {
      "doubleSided": true,
      "extensions": {
        "KHR_materials_clearcoat": {
          "clearcoatFactor": 1.0,
          "clearcoatRoughnessFactor": 0.04
        }
      },
      "name": "Material.003",
      "pbrMetallicRoughness": {
        "baseColorFactor": [
          0.4027480042579808,
          0.4027480042579808,
          0.4027480042579808,
          1.0
        ],
        "baseColorTexture": {
          "index": 0
        },
        "metallicFactor": 0.0,
        "roughnessFactor": 0.231818
      }
    },
    {
      "doubleSided": true,
      "name": "Material.002",
      "pbrMetallicRoughness": {
        "baseColorTexture": {
          "index": 1
        },
        "metallicFactor": 0.0,
        "roughnessFactor": 0.1
      }
    }
  ],
  "meshes": [
    {
      "name": "Object_0",
      "primitives": [
        {
          "attributes": {
            "JOINTS_0": 13,
            "NORMAL": 1,
            "POSITION": 0,
            "TEXCOORD_0": 2,
            "WEIGHTS_0": 14
          },
          "indices": 3,
          "material": 0,
          "mode": 4
        }
      ]
    },
    {
      "name": "Object_1",
      "primitives": [
        {
          "attributes": {
            "JOINTS_0": 15,
            "NORMAL": 5,
            "POSITION": 4,
            "TEXCOORD_0": 6,
            "WEIGHTS_0": 16
          },
          "indices": 7,
          "material": 0,
          "mode": 4
        }
      ]
    },
    {
      "name": "Object_2",
      "primitives": [
        {
          "attributes": {
            "NORMAL": 9,
            "POSITION": 8,
            "TEXCOORD_0": 10
          },
          "indices": 11,
          "material": 1,
          "mode": 4
        }
      ]
    }
  ],
  "nodes": [
    {
      "children": [
        1
      ],
      "matrix": [
        0.0057142856530845165,
        0.0,
        0.0,
        0.0,
        0.0,
        1.268826300267926e-18,
        -0.0057142856530845165,
        0.0,
        0.0,
        0.0057142856530845165,
        1.268826300267926e-18,
        0.0,
        0.0,
        0.0,
        0.0,
        1.0
      ],
      "name": "Sketchfab_model"
    },
    {
      "children": [
        2
      ],
      "name": "root"
    },
    {
      "children": [
        3
      ],
      "matrix": [
        1.0,
        0.0,
        0.0,
        0.0,
        0.0,
        2.220446049250313e-16,
        1.0,
        0.0,
        0.0,
        -1.0,
        2.220446049250313e-16,
        0.0,
        0.0,
        0.0,
        0.0,
        1.0
      ],
      "name": "GLTF_SceneRootNode"
    },
    {
      "children": [
        4,
        45
      ],
      "name": "Empty_38"
    },
    {
      "children": [
        5
      ],
      "matrix": [
        1.0,
        0.0,
        0.0,
        0.0,
        -0.0,
        0.0,
        -1.0,
        0.0,
        0.0,
        1.0,
        0.0,
        0.0,
        0.0,
        0.6319718360900879,
        0.5824054479598999,
        1.0
      ],
      "name": "Armature_36"
    },
    {
      "children": [
        6,
        8,
        9,
        7
      ],
      "name": "GLTF_created_0"
    },
    {
      "children": [
        10
      ],
      "name": "GLTF_created_0_rootJoint"
    },
    {
      "name": "Sphere.001_35"
    },
    {
      "mesh": 0,
      "name": "Object_8",
      "skin": 0
    },
    {
      "mesh": 1,
      "name": "Object_9",
      "skin": 0
    },
    {
      "children": [
        11,
        37,
        41
      ],
      "name": "Bone_34",
      "rotation": [
        0.0,
        3.8569235869250854e-24,
        3.8569235869250854e-24,
        1.0
      ],
      "translation": [
        1.1177735408675634e-23,
        -0.46984827518463135,
        0.0
      ]
    },
    {
      "children": [
        12,
        29,
        33
      ],
      "name": "Bone.003_25",
      "translation": [
        1.9721522630525295e-31,
        0.7751968502998352,
        0.0
      ]
    },
    {
      "children": [
        13,
        21,
        25
      ],
      "name": "Bone.001_16",
      "rotation": [
        0.12724532186985016,
        1.182402726840337e-07,
        1.5168824418765325e-08,
        0.9918712973594666
      ],
      "translation": [
        0.0,
        0.7751968502998352,
        0.0
      ]
    },
    {
      "children": [
        14,
        15,
        18
      ],
      "name": "Bone.002_7",
      "rotation": [
        -0.09528769552707672,
        3.792012768377576e-15,
        -2.2718356973427944e-08,
        0.9954497814178467
      ],
      "translation": [
        -3.552713678800501e-15,
        0.2687496542930603,
        1.4901161193847656e-08
      ]
    },
    {
      "name": "Bone.022_0",
      "rotation": [
        1.862645326866641e-08,
        1.429412144204889e-14,
        4.59814757680665e-15,
        1.0
      ],
      "scale": [
        1.0,
        0.9999999403953552,
        0.9999999403953552
      ],
      "translation": [
        -3.1086244689504383e-15,
        0.7757256627082825,
        1.30385160446167e-08
      ]
    },
    {
      "children": [
        16
      ],
      "name": "Bone.023_3",
      "rotation": [
        0.21245162189006805,
        -0.14611704647541046,
        -0.5196889638900757,
        0.8145167827606201
      ],
      "scale": [
        0.9999999403953552,
        1.0,
        0.9999999403953552
      ],
      "translation": [
        -3.1086244689504383e-15,
        0.7757256627082825,
        1.30385160446167e-08
      ]
    },
    {
      "children": [
        17
      ],
      "name": "Bone.025_2",
      "rotation": [
        -0.03424002230167389,
        0.15088395774364471,
        0.2552085518836975,
        0.954426646232605
      ],
      "scale": [
        1.0,
        0.9999999403953552,
        0.9999999403953552
      ],
      "translation": [
        7.35744833946228e-08,
        0.11879321187734604,
        -3.725290298461914e-08
      ]
    },
    {
      "name": "Bone.028_1",
      "rotation": [
        -0.3489634692668915,
        0.5321810245513916,
        -0.2943834364414215,
        0.7129840850830078
      ],
      "scale": [
        1.000000238418579,
        1.0000001192092896,
        1.000000238418579
      ],
      "translation": [
        3.259629011154175e-08,
        0.08092375099658966,
        -4.0978193283081055e-08
      ]
    },
    {
      "children": [
        19
      ],
      "name": "Bone.024_6",
      "rotation": [
        0.20444336533546448,
        0.14669322967529297,
        0.5374748110771179,
        0.8048632144927979
      ],
      "translation": [
        -3.1086244689504383e-15,
        0.7757256627082825,
        1.30385160446167e-08
      ]
    },
    {
      "children": [
        20
      ],
      "name": "Bone.026_5",
      "rotation": [
        -0.03598325699567795,
        -0.1904212236404419,
        -0.3339621126651764,
        0.9224501848220825
      ],
      "scale": [
        1.0,
        0.9999999403953552,
        1.0
      ],
      "translation": [
        -9.96515154838562e-08,
        0.12185890972614288,
        -3.3527612686157227e-08
      ]
    },
    {
      "name": "Bone.027_4",
      "rotation": [
        -0.3041608929634094,
        -0.47573912143707275,
        0.2826645076274872,
        0.7754091024398804
      ],
      "scale": [
        1.0,
        0.9999999403953552,
        1.0
      ],
      "translation": [
        5.494803190231323e-08,
        0.0825757384300232,
        5.960464477539063e-08
      ]
    },
    {
      "children": [
        22
      ],
      "name": "Bone.008_11",
      "rotation": [
        -0.3121337592601776,
        0.15370392799377441,
        -0.5227563381195068,
        0.7782502174377441
      ],
      "translation": [
        -3.552713678800501e-15,
        0.2687496542930603,
        1.4901161193847656e-08
      ]
    },
    {
      "children": [
        23
      ],
      "name": "Bone.010_10",
      "rotation": [
        -0.038875315338373184,
        0.2376602441072464,
        -0.11251159012317657,
        0.964026689529419
      ],
      "scale": [
        0.9999999403953552,
        1.0,
        1.0
      ],
      "translation": [
        1.4808028936386108e-07,
        0.284757137298584,
        -3.725290298461914e-08
      ]
    },
    {
      "children": [
        24
      ],
      "name": "Bone.012_9",
      "rotation": [
        -0.05917394906282425,
        -0.13823631405830383,
        0.343584269285202,
        0.927005410194397
      ],
      "translation": [
        5.960464477539063e-08,
        0.40647995471954346,
        -4.470348358154297e-08
      ]
    },
    {
      "name": "Bone.031_8",
      "rotation": [
        0.031136760488152504,
        0.035464800894260406,
        -0.16638681292533875,
        0.9849305748939514
      ],
      "scale": [
        1.0,
        0.9999999403953552,
        1.0
      ],
      "translation": [
        7.450580596923828e-08,
        0.37894195318222046,
        -5.960464477539063e-08
      ]
    },
    {
      "children": [
        26
      ],
      "name": "Bone.009_15",
      "rotation": [
        -0.30480051040649414,
        -0.15237291157245636,
        0.5292567014694214,
        0.7770241498947144
      ],
      "scale": [
        0.9999999403953552,
        0.9999998807907104,
        1.0
      ],
      "translation": [
        -3.552713678800501e-15,
        0.2687496542930603,
        1.4901161193847656e-08
      ]
    },
    {
      "children": [
        27
      ],
      "name": "Bone.011_14",
      "rotation": [
        -0.041482701897621155,
        -0.23171062767505646,
        0.10833548754453659,
        0.9658430814743042
      ],
      "scale": [
        0.9999999403953552,
        0.9999999403953552,
        1.0
      ],
      "translation": [
        -4.563480615615845e-08,
        0.2899470031261444,
        -1.4901161193847656e-08
      ]
    },
    {
      "children": [
        28
      ],
      "name": "Bone.013_13",
      "rotation": [
        -0.06325659155845642,
        0.14834408462047577,
        -0.346103698015213,
        0.9242320656776428
      ],
      "translation": [
        2.9802322387695313e-08,
        0.40568864345550537,
        4.470348358154297e-08
      ]
    },
    {
      "name": "Bone.034_12",
      "rotation": [
        0.09231164306402206,
        -0.1138579249382019,
        0.2867729365825653,
        0.946718692779541
      ],
      "scale": [
        1.0,
        0.9999999403953552,
        1.0000001192092896
      ],
      "translation": [
        -2.9802322387695313e-08,
        0.3789418637752533,
        -2.9802322387695313e-08
      ]
    },
    {
      "children": [
        30
      ],
      "name": "Bone.005_20",
      "rotation": [
        -0.1690511405467987,
        0.12377285957336426,
        -0.5456492304801941,
        0.8113994002342224
      ],
      "scale": [
        0.9999999403953552,
        0.9999999403953552,
        1.0
      ],
      "translation": [
        0.0,
        0.7751968502998352,
        0.0
      ]
    },
    {
      "children": [
        31
      ],
      "name": "Bone.014_19",
      "rotation": [
        -0.1256270557641983,
        -0.013883684761822224,
        0.0995575338602066,
        0.9869718551635742
      ],
      "translation": [
        1.3248063623905182e-07,
        0.578016459941864,
        1.4901161193847656e-08
      ]
    },
    {
      "children": [
        32
      ],
      "name": "Bone.016_18",
      "rotation": [
        -0.4153325855731964,
        -0.5781924724578857,
        -0.39587676525115967,
        0.5800636410713196
      ],
      "scale": [
        1.000000238418579,
        1.0000001192092896,
        1.0
      ],
      "translation": [
        1.7136335372924805e-07,
        0.20440679788589478,
        8.940696716308594e-08
      ]
    },
    {
      "name": "Bone.030_17",
      "rotation": [
        0.19109685719013214,
        -0.06647846847772598,
        -0.052528176456689835,
        0.9779077172279358
      ],
      "translation": [
        6.332993507385254e-08,
        0.5743684768676758,
        -2.9802322387695313e-08
      ]
    },
    {
      "children": [
        34
      ],
      "name": "Bone.007_24",
      "rotation": [
        -0.16778604686260223,
        -0.12661373615264893,
        0.556839108467102,
        0.8035838603973389
      ],
      "scale": [
        1.0,
        0.9999999403953552,
        1.0
      ],
      "translation": [
        0.0,
        0.7751968502998352,
        0.0
      ]
    },
    {
      "children": [
        35
      ],
      "name": "Bone.015_23",
      "rotation": [
        -0.14302027225494385,
        0.007169010583311319,
        -0.14317341148853302,
        0.9792830348014832
      ],
      "translation": [
        -8.102506399154663e-08,
        0.5762455463409424,
        1.4901161193847656e-08
      ]
    },
    {
      "children": [
        36
      ],
      "name": "Bone.017_22",
      "rotation": [
        -0.388631671667099,
        0.5817492604255676,
        0.43183809518814087,
        0.569253146648407
      ],
      "scale": [
        1.0,
        1.0000001192092896,
        1.0000001192092896
      ],
      "translation": [
        -2.9802322387695313e-08,
        0.19931191205978394,
        0.0
      ]
    },
    {
      "name": "Bone.032_21",
      "rotation": [
        0.17758385837078094,
        0.06124519184231758,
        -0.01435162965208292,
        0.9820932149887085
      ],
      "scale": [
        1.0,
        0.9999998807907104,
        1.0
      ],
      "translation": [
        7.450580596923828e-08,
        0.5738867521286011,
        -5.960464477539063e-08
      ]
    },
    {
      "children": [
        38
      ],
      "name": "Bone.004_29",
      "rotation": [
        -0.14826323091983795,
        0.09567281603813171,
        -0.541076123714447,
        0.8222538232803345
      ],
      "scale": [
        1.0,
        1.0000001192092896,
        1.0
      ],
      "translation": [
        1.9721522630525295e-31,
        0.7751968502998352,
        0.0
      ]
    },
    {
      "children": [
        39
      ],
      "name": "Bone.018_28",
      "rotation": [
        -0.2902449071407318,
        -0.06669791042804718,
        -0.07825453579425812,
        0.9514123797416687
      ],
      "scale": [
        0.9999998807907104,
        0.9999999403953552,
        0.9999999403953552
      ],
      "translation": [
        6.204936653375626e-08,
        0.7741844654083252,
        -3.725290298461914e-09
      ]
    },
    {
      "children": [
        40
      ],
      "name": "Bone.020_27",
      "rotation": [
        -0.338346004486084,
        -0.28496861457824707,
        -0.4703836143016815,
        0.7635798454284668
      ],
      "scale": [
        1.0000001192092896,
        1.0000001192092896,
        1.0
      ],
      "translation": [
        2.9802322387695313e-08,
        0.1946452111005783,
        -5.960464477539063e-08
      ]
    },
    {
      "name": "Bone.029_26",
      "rotation": [
        0.3287629187107086,
        -0.0263157207518816,
        -0.00152049760799855,
        0.9440446496009827
      ],
      "scale": [
        1.0,
        0.9999998807907104,
        0.9999999403953552
      ],
      "translation": [
        -5.960464477539063e-08,
        0.5737524628639221,
        -2.384185791015625e-07
      ]
    },
    {
      "children": [
        42
      ],
      "name": "Bone.006_33",
      "rotation": [
        -0.14856715500354767,
        -0.09484503418207169,
        0.532805860042572,
        0.8276775479316711
      ],
      "translation": [
        1.9721522630525295e-31,
        0.7751968502998352,
        0.0
      ]
    },
    {
      "children": [
        43
      ],
      "name": "Bone.019_32",
      "rotation": [
        -0.2856871783733368,
        0.07158685475587845,
        0.08662205934524536,
        0.9517115354537964
      ],
      "scale": [
        0.9999999403953552,
        1.000000238418579,
        1.0000001192092896
      ],
      "translation": [
        -6.065238267183304e-08,
        0.7853055000305176,
        2.2351741790771484e-08
      ]
    },
    {
      "children": [
        44
      ],
      "name": "Bone.021_31",
      "rotation": [
        -0.3623847961425781,
        0.27610036730766296,
        0.46170976758003235,
        0.7610979080200195
      ],
      "scale": [
        0.9999999403953552,
        1.0,
        1.0000001192092896
      ],
      "translation": [
        -1.4901161193847656e-08,
        0.19684536755084991,
        -4.470348358154297e-08
      ]
    },
    {
      "name": "Bone.033_30",
      "rotation": [
        0.32265689969062805,
        0.040295738726854324,
        0.056494519114494324,
        0.9439688324928284
      ],
      "scale": [
        1.0000001192092896,
        1.0,
        1.0
      ],
      "translation": [
        4.470348358154297e-08,
        0.5628030300140381,
        0.0
      ]
    },
    {
      "children": [
        46
      ],
      "matrix": [
        1.078876256942749,
        0.0,
        0.0,
        0.0,
        0.0,
        1.0656819343566895,
        0.0,
        0.0,
        0.0,
        0.0,
        1.0378801822662354,
        0.0,
        0.0,
        0.2522503435611725,
        0.0,
        1.0
      ],
      "name": "Sphere_37"
    },
    {
      "mesh": 2,
      "name": "Object_46"
    }
  ],
  "samplers": [
    {
      "magFilter": 9729,
      "minFilter": 9987,
      "wrapS": 10497,
      "wrapT": 10497
    }
  ],
  "scene": 0,
  "scenes": [
    {
      "name": "Sketchfab_Scene",
      "nodes": [
        0
      ]
    }
  ],
  "skins": [
    {
      "inverseBindMatrices": 12,
      "joints": [
        6,
        10,
        11,
        12,
        13,
        14,
        15,
        16,
        17,
        18,
        19,
        20,
        21,
        22,
        23,
        24,
        25,
        26,
        27,
        28,
        29,
        30,
        31,
        32,
        33,
        34,
        35,
        36,
        37,
        38,
        39,
        40,
        41,
        42,
        43,
        44
      ],
      "skeleton": 6
    }
  ],
  "textures": [
    {
      "sampler": 0,
      "source": 0
    },
    {
      "sampler": 0,
      "source": 1
    }
  ]
}
